:SAMPLES-PER-SECOND 30
:FULLY-SPECIFIED
:DEGREES
205
root  -1.83286 31.8465 8.4506 9.95922 -54.4768 -18.4305
RightUpLeg  -34.0436 -15.1104 15.7663
RightLeg  79.2779 1.62514 8.67542
RightFoot  -17.6054 -0.0169687 1.86442
RightToes  5.82063e-011 0 -3.6325e-017
Spine  33.7132 4.46038 6.0509
Spine1  -0.223725 4.27984 12.092
HEad  -25.5721 -26.7184 9.0139
LeftShoulder1  0.544753 0.437571 -10.4938
LeftArm  -29.3639 45.0395 -19.2183
LeftForeArm  -39.4189 -28.0507 -7.76225
LeftHand  2.78289 12.1874 44.4197
RightShoulder  1.04735 0.955239 16.9202
RightArm  -45.024 -42.1471 21.7788
RightForeArm  -52.4064 31.5643 9.02584
RightHand  -2.2365 -0.153398 -47.1739
LeftUpLeg  -36.7697 -19.8658 8.41117
LeftLeg  83.2488 1.92672 24.6407
LeftFoot  -22.1289 -1.46972 -16.8634
LeftToes  3.99265e-010 -1.33173e-010 6.75004e-011
206
root  -1.62515 31.7654 8.61814 7.06683 -54.0355 -15.3053
RightUpLeg  -34.9247 -12.5562 14.5196
RightLeg  80.5622 0.746492 3.5662
RightFoot  -17.3095 -0.00180091 2.19942
RightToes  5.82063e-011 0 -3.6325e-017
Spine  34.9576 3.06457 5.87184
Spine1  -0.267018 2.91449 11.6191
HEad  -26.4174 -25.3154 7.43458
LeftShoulder1  0.516398 0.621207 -10.6569
LeftArm  -30.0423 44.7468 -22.0394
LeftForeArm  -39.1869 -28.2632 -7.80899
LeftHand  2.93219 12.2825 45.9382
RightShoulder  1.03778 0.970965 16.5899
RightArm  -45.9329 -40.7587 26.8205
RightForeArm  -49.3548 31.1491 8.85252
RightHand  -2.13652 -0.227848 -45.8784
LeftUpLeg  -37.0259 -17.3974 6.68415
LeftLeg  83.3146 1.49861 20.5964
LeftFoot  -22.4714 -1.31562 -14.8305
LeftToes  3.99265e-010 -1.33173e-010 6.75004e-011
207
root  -1.43769 31.7526 8.78735 2.74535 -52.0516 -10.6147
RightUpLeg  -35.6218 -9.20817 12.2631
RightLeg  81.8858 0.0343417 -2.31683
RightFoot  -16.8721 0.123085 4.93024
RightToes  5.82063e-011 0 -3.6325e-017
Spine  36.3386 0.746905 6.48281
Spine1  -0.620835 1.10471 9.85727
HEad  -27.6231 -24.9143 6.07797
LeftShoulder1  0.73213 -0.103664 -13.1835
LeftArm  -31.9005 40.0568 -26.6962
LeftForeArm  -40.1983 -27.3907 -7.6181
LeftHand  3.07526 12.6119 45.9808
RightShoulder  1.12512 1.17224 17.531
RightArm  -47.074 -37.7614 33.0468
RightForeArm  -49.8907 28.1607 8.08163
RightHand  -2.00638 -0.52209 -45.7194
LeftUpLeg  -37.2938 -14.1766 4.08554
LeftLeg  82.9821 1.00387 14.2065
LeftFoot  -22.616 -1.00963 -11.5583
LeftToes  3.99265e-010 -1.33173e-010 6.75004e-011
208
root  -1.30439 31.7805 8.96388 -2.45142 -48.7297 -5.37417
RightUpLeg  -35.7412 -5.81449 9.25014
RightLeg  83.5233 -0.414739 -8.88141
RightFoot  -15.4276 0.230479 9.50241
RightToes  5.82063e-011 0 -3.6325e-017
Spine  36.9974 -2.17957 7.01466
Spine1  0.0552962 -1.43269 7.80874
HEad  -28.7437 -24.8523 5.27447
LeftShoulder1  1.1749 -1.39335 -17.3032
LeftArm  -31.7914 31.7714 -31.0214
LeftForeArm  -44.1738 -25.0187 -7.15176
LeftHand  3.18786 13.2073 44.2834
RightShoulder  1.245 1.42563 18.8336
RightArm  -44.8916 -32.3778 39.3417
RightForeArm  -53.1103 24.2142 7.07633
RightHand  -1.87232 -0.860813 -45.8554
LeftUpLeg  -37.0125 -10.6114 0.748115
LeftLeg  82.6361 0.386778 6.99242
LeftFoot  -21.3445 -0.532686 -7.48821
LeftToes  3.99265e-010 -1.33173e-010 6.75004e-011
209
root  -1.2446 31.8315 9.13811 -8.06246 -44.6902 -0.21906
RightUpLeg  -35.0991 -2.56969 5.98459
RightLeg  85.3671 -0.484885 -16.289
RightFoot  -12.3522 0.0363417 13.8082
RightToes  5.82063e-011 0 -3.6325e-017
Spine  36.6811 -4.67837 6.25129
Spine1  1.74166 -4.276 6.73406
HEad  -28.8445 -25 4.62739
LeftShoulder1  1.6906 -2.70608 -20.8318
LeftArm  -27.0632 21.5001 -35.6817
LeftForeArm  -50.2545 -22.1882 -6.81104
LeftHand  3.12582 13.874 40.4484
RightShoulder  1.32014 1.62362 19.3629
RightArm  -38.1813 -25.6918 45.3548
RightForeArm  -56.2493 21.8149 6.33162
RightHand  -1.71372 -1.18914 -45.3129
LeftUpLeg  -35.8313 -6.78925 -2.93592
LeftLeg  82.3484 -0.317858 -0.414593
LeftFoot  -18.3504 -0.106589 -3.47928
LeftToes  3.99265e-010 -1.33173e-010 6.75004e-011
